<?xml version="1.0" encoding="UTF-8"?>
<svg width="1004px" height="1000px" viewBox="0 0 1004 1000" version="1.1" xmlns="http://www.w3.org/2000/svg" xmlns:xlink="http://www.w3.org/1999/xlink">
    <!-- Generator: Sketch 54.1 (76490) - https://sketchapp.com -->
    <title>编组 22</title>
    <desc>Created with Sketch.</desc>
    <defs>
        <linearGradient x1="-1.02542517e-14%" y1="50%" x2="100%" y2="50%" id="linearGradient-1">
            <stop stop-color="#FFFFFF" offset="0%"></stop>
            <stop stop-color="#00ADDA" offset="100%"></stop>
        </linearGradient>
    </defs>
    <g id="上传" stroke="none" stroke-width="1" fill="none" fill-rule="evenodd">
        <g id="画板" transform="translate(-9344.000000, -3917.000000)">
            <g id="编组-22" transform="translate(9344.000000, 3917.000000)">
                <rect id="矩形复制-31" x="0" y="0" width="1000" height="1000"></rect>
                <g id="编组-212" transform="translate(12.000000, 244.000000)" fill-rule="nonzero">
                    <g id="编组-211">
                        <path d="M992,600.580571 C992,617.94394 769.921131,632 496.017895,632 C222.114659,632 0,617.94394 0,600.580571 C0,583.217203 222.078869,569.161143 496.017895,569.161143 C769.956922,569.161143 992,583.217203 992,600.580571 Z" id="路径" fill="url(#linearGradient-1)" opacity="0.22"></path>
                        <g id="编组-144" transform="translate(317.179898, 46.948571)">
                            <path d="M414.718135,236.903936 C414.718135,238.903223 321.886439,240.521143 207.36431,240.521143 C92.8421802,240.521143 0,238.903223 0,236.903936 C0,234.904649 92.8421802,233.298286 207.36431,233.298286 C321.886439,233.298286 414.718135,234.950875 414.718135,236.903936 Z" id="路径" fill="#E4F0FA"></path>
                            <g id="编组-131" transform="translate(391.597961, 5.056000)">
                                <ellipse id="椭圆形" fill="#007DF3" cx="27.4552076" cy="29.2525714" rx="27.4552076" ry="29.2525714"></ellipse>
                                <ellipse id="椭圆形" fill="#FFFFFF" cx="27.3059945" cy="29.4115528" rx="23.4264543" ry="24.9600745"></ellipse>
                                <path d="M34.5912262,44.0935714 C34.3899545,44.0093988 34.2179597,43.8607452 34.0988157,43.6679854 L25.0677982,29.5340518 L31.8148693,11.2114564 C31.955232,10.8333389 32.2736368,10.5639928 32.6501436,10.5048783 C33.0266505,10.4457637 33.404059,10.6058615 33.6402031,10.9248645 C33.8763471,11.2438674 33.9353508,11.6733112 33.794988,12.0514287 L27.5088969,29.2428614 L35.8903517,42.3912275 C36.1858854,42.7993477 36.1822558,43.3705171 35.8815626,43.7743076 C35.5808694,44.1780982 35.0609801,44.3099442 34.6226566,44.0935714 L34.5912262,44.0935714 Z" id="路径" fill="#2ACDC7"></path>
                            </g>
                            <path d="M67.948903,6.08130095e-16 L381.439019,6.08130095e-16 C384.256447,7.93368134e-16 386.540422,2.45238219 386.540422,5.47754894 L386.540422,226.075429 L62.8579752,226.075429 L62.8579752,5.47754894 C62.8579693,2.45676919 65.1355677,0.00620283315 67.948903,6.08130095e-16 Z" id="路径" fill="#00467F"></path>
                            <rect id="矩形" fill="#E7F1F7" x="74.4180626" y="7.22285714" width="299.839767" height="192.850286" rx="3.7"></rect>
                            <rect id="矩形" fill="#136CBD" x="39.7378004" y="215.241143" width="369.200291" height="6.50057143"></rect>
                            <path d="M277.590612,221.019429 L39.7378004,221.019429 C39.7378004,221.019429 46.4862167,234.413798 93.3158176,236.187429 L355.412551,236.187429 C402.231656,234.413798 408.938092,221.019429 408.938092,221.019429 L277.590612,221.019429 Z" id="路径" fill="#1365A3"></path>
                            <g id="编组-127" transform="translate(123.548434, 15.168000)">
                                <rect id="矩形" fill="#FFFFFF" x="0" y="0" width="105.485798" height="36.1142857" rx="5.13"></rect>
                                <path d="M20.2004835,30.4120301 L20.2004835,30.4120301 C16.9689594,30.4120314 13.8699432,29.0426607 11.5858953,26.6054785 C9.30184738,24.1682964 8.02008221,20.8631759 8.02286801,17.4179652 L8.02286801,17.4179652 C8.02286801,10.2477226 13.4749722,4.43509255 20.2004835,4.43509255 L20.2004835,4.43509255 C23.4320065,4.43212254 26.5321283,5.79864573 28.8181452,8.23372864 C31.1041621,10.6688116 32.3885982,13.9727533 32.388597,17.4179652 L32.388597,17.4179652 C32.388597,24.5943891 26.9317927,30.4120301 20.2004835,30.4120301 Z" id="路径" fill="#00D8DA"></path>
                                <path d="M24.0010207,14.0404057 C24.3055312,12.3935979 23.560896,10.7287977 22.168968,9.94443789 C20.7770399,9.16007807 19.0673429,9.44184737 17.962539,10.637685 C16.8577351,11.8335227 16.6193746,13.660327 17.3760922,15.1322375 C18.1328097,16.6041479 19.7054606,17.3727055 21.2453417,17.0231474 C22.6395843,16.7036354 23.722483,15.5315079 24.0010207,14.0404057 L24.0010207,14.0404057 Z" id="路径" fill="#FFFFFF"></path>
                                <path d="M20.5028733,18.0571429 C16.8925062,18.0571429 13.9657253,21.1774601 13.9657253,25.0265664 L27.0400213,25.0265664 C27.0400213,21.1774601 24.1132405,18.0571429 20.5028733,18.0571429 L20.5028733,18.0571429 Z" id="路径" fill="#FFFFFF"></path>
                                <path d="M42.1801067,12.6716792 L62.4037339,12.6716792 C63.3822478,12.6716976 64.1771178,11.8250309 64.1829078,10.7765675 L64.1829078,10.7765675 C64.1829078,9.72369625 63.3863445,8.87017544 62.4037339,8.87017544 L42.1801067,8.87017544 C41.2016099,8.87637947 40.4114433,9.72808585 40.4114605,10.7765675 L40.4114605,10.7765675 C40.4114605,11.8232088 41.2033103,12.6716792 42.1801067,12.6716792 L42.1801067,12.6716792 Z" id="路径" fill="#C3D5EA"></path>
                                <path d="M42.1583972,19.9578947 L48.4598474,19.9578947 C49.4303967,19.9578947 50.2171825,19.1043739 50.2171825,18.0515026 L50.2171825,18.0515026 C50.2114635,17.0030393 49.4263504,16.1563726 48.4598474,16.156391 L42.1583972,16.156391 C41.1935907,16.156391 40.4114605,17.0048614 40.4114605,18.0515026 L40.4114605,18.0515026 C40.4114435,19.0999843 41.1919111,19.9516907 42.1583972,19.9578947 L42.1583972,19.9578947 Z" id="路径" fill="#C3D5EA"></path>
                                <path d="M56.0807224,19.9578947 L62.4274343,19.9578947 C63.3969555,19.9578947 64.1829078,19.1043739 64.1829078,18.0515026 L64.1829078,18.0515026 C64.1771949,17.0030393 63.3929134,16.1563726 62.4274343,16.156391 L56.1326594,16.156391 C55.1671803,16.1563726 54.3828988,17.0030393 54.3771859,18.0515026 L54.3771859,18.0515026 C54.3767702,19.0827351 55.1315425,19.927385 56.0807224,19.9578947 Z" id="路径" fill="#C3D5EA"></path>
                                <path d="M42.1801067,27.5609023 L62.4037339,27.5609023 C63.3863445,27.5609023 64.1829078,26.7073814 64.1829078,25.6545102 L64.1829078,25.6545102 C64.1771178,24.6060468 63.3822478,23.7593801 62.4037339,23.7593985 L42.1801067,23.7593985 C41.2033103,23.7593985 40.4114605,24.6078689 40.4114605,25.6545102 L40.4114605,25.6545102 C40.4114433,26.7029918 41.2016099,27.5546982 42.1801067,27.5609023 L42.1801067,27.5609023 Z" id="路径" fill="#C3D5EA"></path>
                                <path d="M74.8697718,12.6716792 L95.0855255,12.6716792 C96.0662111,12.6716976 96.862845,11.8250309 96.8686479,10.7765675 L96.8686479,10.7765675 C96.8686479,9.72369625 96.0703168,8.87017544 95.0855255,8.87017544 L74.8697718,8.87017544 C73.8891035,8.87637947 73.0971834,9.72808585 73.0972005,10.7765675 L73.0972005,10.7765675 C73.0972005,11.8232088 73.8908077,12.6716792 74.8697718,12.6716792 L74.8697718,12.6716792 Z" id="路径" fill="#C3D5EA"></path>
                                <path d="M75.1412803,19.9578947 L81.453129,19.9578947 C82.419615,19.9516907 83.2000826,19.0999843 83.2000657,18.0515026 L83.2000657,18.0515026 C83.2000657,17.0048614 82.4179355,16.156391 81.453129,16.156391 L75.1412803,16.156391 C74.1764738,16.156391 73.3943436,17.0048614 73.3943436,18.0515026 L73.3943436,18.0515026 C73.3943267,19.0999843 74.1747942,19.9516907 75.1412803,19.9578947 Z" id="路径" fill="#C3D5EA"></path>
                                <path d="M88.8183994,19.9578947 L95.1131743,19.9578947 C96.0826956,19.9578947 96.8686479,19.1043739 96.8686479,18.0515026 L96.8686479,18.0515026 C96.862935,17.0030393 96.0786535,16.1563726 95.1131743,16.156391 L88.8183994,16.156391 C87.8529202,16.1563726 87.0686387,17.0030393 87.0629258,18.0515026 L87.0629258,18.0515026 C87.0629258,19.1043739 87.8488781,19.9578947 88.8183994,19.9578947 Z" id="路径" fill="#C3D5EA"></path>
                                <path d="M74.8697718,27.5609023 L95.0855255,27.5609023 C96.0703168,27.5609023 96.8686479,26.7073814 96.8686479,25.6545102 L96.8686479,25.6545102 C96.862845,24.6060468 96.0662111,23.7593801 95.0855255,23.7593985 L74.8697718,23.7593985 C73.8908077,23.7593985 73.0972005,24.6078689 73.0972005,25.6545102 L73.0972005,25.6545102 C73.0971834,26.7029918 73.8891035,27.5546982 74.8697718,27.5609023 Z" id="路径" fill="#C3D5EA"></path>
                            </g>
                            <rect id="矩形" fill="#C3D5EA" x="80.9206118" y="141.568" width="53.4654042" height="42.6148571" rx="5.13"></rect>
                            <path d="M134.386016,164.362719 L134.386016,179.993007 C134.380674,181.883355 132.989213,183.423032 131.252691,183.460089 L84.1066016,183.460089 C83.2574466,183.475625 82.4388701,183.115335 81.8383419,182.461733 C81.2378138,181.808131 80.9067805,180.917209 80.921055,179.993007 L80.921055,178.663011 L92.6501332,164.453658 C92.9251603,164.148152 93.3015971,163.975992 93.6945747,163.975992 C94.0875524,163.975992 94.4639892,164.148152 94.7390162,164.453658 L103.522769,174.343368 C103.796349,174.651782 104.173327,174.825971 104.567211,174.825971 C104.961095,174.825971 105.338072,174.651782 105.611652,174.343368 L123.670046,152.915664 C123.958303,152.574983 124.368616,152.38787 124.793909,152.403154 C125.219203,152.418438 125.617281,152.634602 125.884262,152.995236 L134.386016,164.362719 Z" id="路径" fill="#FFFFFF"></path>
                            <g id="编组-133" transform="translate(147.391114, 127.844571)">
                                <rect id="矩形" fill="#C3D5EA" x="0" y="0" width="53.4654042" height="42.6148571" rx="5.13"></rect>
                                <path d="M53.4654042,23.5038328 L53.4654042,39.1452961 C53.4596674,41.0588897 52.0356892,42.6086137 50.277366,42.6148571 L3.13621139,42.6148571 C2.29541725,42.6149842 1.48979684,42.2476375 0.90019921,41.5952805 C0.310601579,40.9429235 -0.0135771075,40.0602103 0.000436136521,39.1452961 L0.000436136521,37.8143498 L11.7282356,23.5948376 C12.0066484,23.2740747 12.3941837,23.0923007 12.7996255,23.0923007 C13.2050672,23.0923007 13.5926025,23.2740747 13.8710153,23.5948376 L22.6616386,33.4916181 C22.9354327,33.8002521 23.3127053,33.9745659 23.7068971,33.9745659 C24.1010888,33.9745659 24.4783614,33.8002521 24.7521555,33.4916181 L42.8246735,12.0485938 C43.1131561,11.7076696 43.5237901,11.5204227 43.9494159,11.5357174 C44.3750418,11.5510121 44.7734317,11.767331 45.0406214,12.128223 L53.4654042,23.5038328 Z" id="路径" fill="#FFFFFF"></path>
                            </g>
                            <g id="编组-132" transform="translate(213.861617, 100.397714)">
                                <rect id="矩形" fill="#FFFFFF" x="0" y="0" width="131.495994" height="70.0617143" rx="7.6"></rect>
                                <rect id="矩形" fill="#D0DAEE" x="5.33091868" y="4.12127731" width="121.130319" height="61.5021383" rx="4.56"></rect>
                                <path d="M79.3714559,29.4829838 C79.3714559,21.4290257 73.2720257,14.9000026 65.7479971,14.9000026 C58.2239685,14.9000026 52.1245382,21.4290257 52.1245382,29.4829838 C52.1245382,37.536942 58.2239685,44.0659651 65.7479971,44.0659651 C73.2720257,44.0659651 79.3714559,37.536942 79.3714559,29.4829838 Z" id="路径" fill="#FFFFFF"></path>
                                <path d="M74.0101076,28.7312576 L62.5618993,21.6465682 C62.3628125,21.5261451 62.1190122,21.5278722 61.9214305,21.6511051 C61.7238487,21.774338 61.6021507,22.0005746 61.601727,22.2454335 L61.601727,36.4035129 C61.6021507,36.6483718 61.7238487,36.8746083 61.9214305,36.9978413 C62.1190122,37.1210742 62.3628125,37.1228012 62.5618993,37.0023782 L74.0101076,29.9176888 C74.2116272,29.7982871 74.3366994,29.5711082 74.3366994,29.3244732 C74.3366994,29.0778382 74.2116272,28.8506592 74.0101076,28.7312576 L74.0101076,28.7312576 Z" id="路径" fill="#00467F"></path>
                                <path d="M120.834133,57.0638267 C120.836936,57.7373893 120.592639,58.3842474 120.155575,58.860533 C119.718511,59.3368186 119.124921,59.6030391 118.506826,59.5999843 L13.2853062,59.5999843 C11.9999702,59.5999843 10.9579995,58.4645079 10.9579995,57.0638267 C10.9579995,55.6631455 11.9999702,54.527669 13.2853062,54.527669 L118.506826,54.527669 C119.124066,54.527669 119.716026,54.7948706 120.152481,55.2704924 C120.588935,55.7461142 120.834133,56.3911959 120.834133,57.0638267 L120.834133,57.0638267 Z" id="路径" fill="#FFFFFF"></path>
                                <path d="M72.2635644,54.527669 L72.2635644,59.6000103 L13.2769355,59.6000103 C11.9962225,59.6000103 10.9579995,58.4645281 10.9579995,57.0638397 C10.9579995,55.6631513 11.9962225,54.527669 13.2769355,54.527669 L72.2635644,54.527669 Z" id="路径" fill="#00467F"></path>
                            </g>
                            <rect id="矩形" fill="#00D8DA" x="78.0305899" y="29.6137143" width="40.4603059" height="36.1142857" rx="5.13"></rect>
                            <path d="M109.82083,49.0223734 L109.82083,44.863375 L107.414592,44.6354847 C107.170281,43.4235925 106.734895,42.2670119 106.127778,41.2171298 L107.686602,39.211695 L104.98743,36.2605153 L103.135673,37.9582982 C102.175267,37.2920353 101.111863,36.8210343 99.997102,36.5681673 L99.7878639,33.9474286 L95.9692688,33.9474286 L95.7600307,36.5681673 C94.663439,36.8275396 93.6182466,37.2983209 92.6737689,37.9582982 L90.8220118,36.2605153 L88.1123785,39.211695 L89.6712023,41.2171298 C89.0629157,42.2650837 88.6307261,43.4225833 88.39485,44.6354847 L85.97815,44.863375 L85.97815,49.0223734 L88.39485,49.2502637 C88.6287823,50.4638131 89.0611083,51.621678 89.6712023,52.6686185 L88.1123785,54.6854479 L90.8220118,57.625233 L92.7156165,55.9274501 C93.6621079,56.5857174 94.7063802,57.0599397 95.8018783,57.3289756 L96.0111164,59.9497143 L99.8297115,59.9497143 L100.03895,57.3289756 C101.152874,57.0671642 102.215456,56.5926694 103.177521,55.9274501 L105.029278,57.625233 L107.728449,54.6854479 L106.169626,52.6686185 C106.778455,51.6196984 107.213969,50.4627807 107.45644,49.2502637 L109.82083,49.0223734 Z M97.9256449,52.4407282 C95.1175611,52.4407282 92.8411594,49.9613999 92.8411594,46.9029934 C92.8411594,43.8445869 95.1175611,41.3652585 97.9256449,41.3652585 C100.733729,41.3652585 103.01013,43.8445869 103.01013,46.9029934 C103.026914,48.3835016 102.498647,49.8096735 101.543295,50.863034 C100.587944,51.9163944 99.285081,52.5092081 97.9256449,52.5090953 L97.9256449,52.4407282 Z" id="形状" fill="#FFFFFF"></path>
                            <rect id="矩形" fill="#FFFFFF" x="80.9206118" y="81.6182857" width="119.935907" height="46.2262857" rx="5.13"></rect>
                            <path d="M157.319418,98.2257888 L103.505054,98.2257888 C102.938895,98.2713224 102.39421,98.0073451 102.09653,97.5431594 C101.79885,97.0789738 101.79885,96.4935976 102.09653,96.029412 C102.39421,95.5652263 102.938895,95.3012491 103.505054,95.3467827 L157.319418,95.3467827 C157.885577,95.3012491 158.430262,95.5652263 158.727942,96.029412 C159.025622,96.4935976 159.025622,97.0789738 158.727942,97.5431594 C158.430262,98.0073451 157.885577,98.2713224 157.319418,98.2257888 L157.319418,98.2257888 Z" id="路径" fill="#C3D5EA"></path>
                            <path d="M157.336961,114.121143 L104.101171,114.121143 C103.269764,114.121143 102.595776,113.475507 102.595776,112.679075 C102.595776,111.882643 103.269764,111.237007 104.101171,111.237007 L157.336961,111.237007 C157.897033,111.192024 158.435863,111.452811 158.730342,111.911388 C159.024822,112.369964 159.024822,112.948267 158.730342,113.406843 C158.435863,113.86542 157.897033,114.126207 157.336961,114.081224 L157.336961,114.121143 Z" id="路径" fill="#C3D5EA"></path>
                        </g>
                        <rect id="矩形" fill="#65B2F1" transform="translate(255.766934, 435.177143) rotate(180.000000) translate(-255.766934, -435.177143) " x="174.846322" y="277.357714" width="161.841224" height="315.638857"></rect>
                        <rect id="矩形" fill="#7CC6F7" transform="translate(341.383831, 277.357714) rotate(180.000000) translate(-341.383831, -277.357714) " x="130.773489" y="270.857143" width="421.220685" height="13.0011429"></rect>
                        <rect id="矩形" fill="#FAFAFF" x="410.383103" y="262.912" width="141.611071" height="7.94514286"></rect>
                        <rect id="矩形" fill="#E4EEF5" transform="translate(594.260743, 262.550857) rotate(180.000000) translate(-594.260743, -262.550857) " x="590.286963" y="260.745143" width="7.94756009" height="3.61142857"></rect>
                        <rect id="矩形" fill="#E4EEF5" transform="translate(581.978150, 262.550857) rotate(180.000000) translate(-581.978150, -262.550857) " x="578.00437" y="260.745143" width="7.94756009" height="3.61142857"></rect>
                        <rect id="矩形" fill="#E4EEF5" transform="translate(570.418063, 262.550857) rotate(180.000000) translate(-570.418063, -262.550857) " x="566.444283" y="260.745143" width="7.94756009" height="3.61142857"></rect>
                        <rect id="矩形" fill="#E4EEF5" transform="translate(558.135470, 262.550857) rotate(180.000000) translate(-558.135470, -262.550857) " x="554.16169" y="260.745143" width="7.94756009" height="3.61142857"></rect>
                        <rect id="矩形" fill="#FAFAFF" transform="translate(543.685361, 262.550857) rotate(180.000000) translate(-543.685361, -262.550857) " x="539.71158" y="260.745143" width="7.94756009" height="3.61142857"></rect>
                        <rect id="矩形" fill="#FAFAFF" transform="translate(531.402768, 262.550857) rotate(180.000000) translate(-531.402768, -262.550857) " x="527.428988" y="260.745143" width="7.94756009" height="3.61142857"></rect>
                        <rect id="矩形" fill="#FAFAFF" transform="translate(519.842680, 262.550857) rotate(180.000000) translate(-519.842680, -262.550857) " x="515.8689" y="260.745143" width="7.94756009" height="3.61142857"></rect>
                        <rect id="矩形" fill="#FAFAFF" x="503.586307" y="260.745143" width="7.94756009" height="3.61142857"></rect>
                        <rect id="矩形" fill="#FAFAFF" x="492.02622" y="260.745143" width="7.94756009" height="3.61142857"></rect>
                        <rect id="矩形" fill="#FAFAFF" x="480.466133" y="260.745143" width="7.94756009" height="3.61142857"></rect>
                        <rect id="矩形" fill="#FAFAFF" x="468.18354" y="260.745143" width="7.94756009" height="3.61142857"></rect>
                        <rect id="矩形" fill="#FAFAFF" x="456.623452" y="260.745143" width="7.94756009" height="3.61142857"></rect>
                        <rect id="矩形" fill="#FAFAFF" x="444.340859" y="260.745143" width="7.94756009" height="3.61142857"></rect>
                        <rect id="矩形" fill="#1AAFBA" x="432.780772" y="260.745143" width="7.94756009" height="3.61142857"></rect>
                        <rect id="矩形" fill="#1AAFBA" x="420.498179" y="260.745143" width="7.94756009" height="3.61142857"></rect>
                        <rect id="矩形" fill="#E4EEF5" transform="translate(576.198106, 266.884571) rotate(180.000000) translate(-576.198106, -266.884571) " x="551.994173" y="262.912" width="48.407866" height="7.94514286"></rect>
                        <path d="M344.637549,586.606966 C344.064158,591.219134 444.586799,593.042549 444.981006,590.18229 C445.733582,581.744526 441.218126,570.947048 435.950095,568.980619 C432.2851,567.855897 428.457849,567.3484 424.625619,567.478983 C415.308012,567.264464 403.553493,568.086789 393.124941,565.155023 C388.999696,564.051398 385.02738,562.442165 381.298748,560.364089 L381.298748,560.364089 C378.106264,558.775644 375.322829,556.475805 373.16376,553.64248 L352.629189,551.104 C349.308959,562.781694 346.640976,574.634246 344.637549,586.606966 Z" id="路径" fill="#024F8E"></path>
                        <path d="M378.592862,522.934857 L375.919592,555.595896 C375.462368,561.393358 370.765782,565.954627 364.941362,566.257824 L364.941362,566.257824 C361.816967,566.411994 358.762202,565.303562 356.467953,563.183217 C354.173704,561.062872 352.833789,558.109739 352.75125,554.99172 L351.86016,523.219175 L378.592862,522.934857 Z" id="路径" fill="#FFCFC3"></path>
                        <path d="M380.468196,574.520683 C383.614144,576.561235 419.792545,580.320147 421.258271,575.415662 C422.208415,572.479933 423.404307,569.62975 424.833212,566.895462 C415.538366,566.680667 403.81256,567.504047 393.409482,564.568516 C389.294313,563.463474 385.331701,561.852174 381.612177,559.771429 L381.612177,559.771429 C381.612177,559.771429 377.322248,572.372733 380.468196,574.520683 Z" id="路径" fill="#00486A"></path>
                        <path d="M406.050514,587.343201 C405.477138,591.957181 505.996981,593.745546 506.391177,590.91993 C507.143732,582.47885 502.807582,571.67713 497.360517,569.674162 C493.691751,568.566779 489.867565,568.059475 486.036357,568.171936 C476.719009,567.957332 464.964817,568.815747 454.536556,565.847062 C450.409633,564.782437 446.444314,563.170478 442.746528,561.054246 L442.746528,561.054246 C439.55221,559.484153 436.767326,557.194393 434.611767,554.365763 L414.077767,551.826286 C410.745552,563.50787 408.065678,575.365087 406.050514,587.343201 Z" id="路径" fill="#065C96"></path>
                        <path d="M440.005827,523.657143 L437.332556,556.316778 C436.890596,562.121116 432.185487,566.690465 426.354327,566.978248 L426.354327,566.978248 C423.233387,567.142318 420.178365,566.04212 417.882932,563.927464 C415.587499,561.812807 414.246425,558.863124 414.164215,555.748166 L413.273125,523.763758 L440.005827,523.657143 Z" id="路径" fill="#FFCFC3"></path>
                        <path d="M441.875014,575.992312 C445.021398,578.031658 481.204811,581.75257 482.67074,576.850984 C483.621016,573.916991 484.817073,571.068493 486.246176,568.335821 C476.950042,568.121153 465.222612,568.979825 454.818093,566.010251 C450.700566,564.945308 446.744275,563.332866 443.054908,561.216 L443.054908,561.216 C443.054908,561.216 438.72863,573.988745 441.875014,575.992312 Z" id="路径" fill="#3D3D3D"></path>
                        <polygon id="路径" fill="#1DBFB7" points="424.833212 353.92 391.400885 533.769143 343.9126 531.045785 358.903224 358.542542"></polygon>
                        <path d="M328.01748,96.4832418 C328.01748,96.4832418 321.544072,112.025864 322.938895,118.454857 C322.938895,118.454857 297.0095,117.077216 291.465974,112.485077 C285.922448,107.892939 291.465974,91.008 291.465974,91.008 L328.01748,96.4832418 Z" id="路径" fill="#FFCFC3"></path>
                        <path d="M224.897063,316.468463 C224.897063,316.468463 201.692947,394.23997 224.897063,404.399633 C248.101178,414.559296 415.686455,392.737484 420.842925,397.244941 C425.999395,401.752397 402.18653,532.218213 402.938515,537.7631 C403.6905,543.307987 446.625276,542.377877 446.625276,542.377877 C446.625276,542.377877 491.028212,364.512223 480.213949,343.191239 C469.399685,321.870256 312.557054,316.361143 312.557054,316.361143 L224.897063,316.468463 Z" id="路径" fill="#2AD4CF"></path>
                        <path d="M310.679933,14.4457143 C332.670091,14.4457143 350.456248,35.3383842 350.456248,61.0331429 C350.449049,63.8775652 350.220799,66.7171522 349.773547,69.5263895 C351.318608,73.1100378 353.187052,77.7687807 353.941617,80.0264791 C354.696181,82.2841776 350.348453,82.1049952 346.395974,81.424102 C339.964212,96.9412993 326.417987,107.620571 310.679933,107.620571 C288.725706,107.620571 270.939548,86.763738 270.939548,61.0331429 C270.939548,35.3025477 288.725706,14.4457143 310.679933,14.4457143 Z" id="路径" fill="#FFCFC3"></path>
                        <path d="M428.445739,242.765662 C416.805404,237.918972 403.966558,236.679714 391.607241,239.20986 C370.811892,243.370149 317.179898,236.187429 317.179898,236.187429 C317.179898,236.187429 320.395674,273.274443 321.789177,273.736697 C323.182679,274.198952 400.861529,257.806705 411.973821,254.962063 C418.782149,253.045455 424.644712,248.704602 428.445739,242.765662 Z" id="路径" fill="#F4C6BD"></path>
                        <path d="M375.639455,26.9148397 C375.639455,26.9148397 367.136512,44.1873166 337.152594,46.3391808 C337.863455,54.5584592 335.001711,62.6859881 329.297956,68.6468403 C327.231371,65.3450345 323.446985,63.5297238 319.578288,63.9844677 C313.158287,64.8810778 315.991695,79.5496192 325.245105,78.0074498 C325.245105,78.0074498 301.349886,106.593074 282.567956,99.4576667 C271.957229,95.4265661 260.821253,60.4926163 261.870006,50.6787737 C264.452353,26.7930805 280.843084,4.41369227 300.461748,0.0382349478 C300.461748,0.0382349478 296.229568,7.2111158 295.297054,9.57816648 C295.297054,9.57816648 303.34458,-2.18567938e-12 325.245105,-2.18847163e-12 C350.711262,-2.18847163e-12 362.876159,9.57816648 375.639455,26.9148397 Z" id="路径" fill="#0D439B"></path>
                        <path d="M324.404953,183.32471 C324.404953,183.32471 349.471817,235.815597 359.641802,236.173164 C367.627388,236.459218 380.662158,232.38295 389.47137,229.343628 L424.52917,219.868093 L428.11015,219.152958 L428.11015,218.831148 L429.685782,218.831148 C431.873335,218.338009 434.104443,218.062528 436.346406,218.008743 C437.685598,218.374966 438.914901,219.062355 439.927386,220.01112 L439.927386,218.831148 L448.127832,218.831148 L448.127832,221.191092 L451.708812,221.191092 L451.708812,218.831148 L459.909258,218.831148 L459.909258,221.191092 L463.490238,221.191092 L463.490238,218.831148 L471.690684,218.831148 L471.690684,221.191092 L475.271664,221.191092 L475.271664,218.831148 L476.1311,218.831148 C472.229759,205.351295 460.644379,195.500021 446.695439,193.801433 C440.178055,192.871758 380.877016,198.414052 374.395442,197.984971 C367.913867,197.555891 349.829915,151.68 349.829915,151.68 L324.404953,183.32471 Z" id="路径" fill="#FFCFC3"></path>
                        <path d="M387.262928,193.587937 C387.262928,193.587937 382.65336,222.771865 354.424227,232.511778 L343.346972,222.771865 C343.346972,222.771865 323.908176,288.12238 348.885599,319.454818 C348.885599,319.454818 281.814607,335.676069 209.526584,325.005136 C209.526584,325.005136 231.895493,159.892137 242.115154,142.8831 C259.445698,114.236299 293.213459,103.959259 327.874548,114.630192 C362.535636,125.301126 387.262928,193.587937 387.262928,193.587937 Z" id="路径" fill="#236CE4"></path>
                        <rect id="矩形" fill="#013E56" x="274.552076" y="435.538286" width="17.3401311" height="37.5588571"></rect>
                        <path d="M273.971825,546.770286 L287.557174,546.770286 L287.557174,572.735298 C287.557174,575.548235 285.280267,577.828571 282.471559,577.828571 L278.915185,577.828571 C276.106478,577.828571 273.82957,575.548235 273.82957,572.735298 L273.82957,546.770286 L273.971825,546.770286 Z" id="路径" fill="#023444"></path>
                        <path d="M361.311235,585.773714 C363.589774,578.805517 359.815287,571.300645 352.880515,569.010783 L291.150501,548.586569 L291.150501,520.768 L270.681,520.768 L270.681,548.873728 L209.95124,569.010783 C203.016468,571.300645 199.241981,578.805517 201.520521,585.773714 L281.398016,559.283258 L281.398016,559.283258 L361.311235,585.773714 Z" id="路径" fill="#013E56"></path>
                        <path d="M345.357611,583.606857 C345.357611,577.623246 350.209762,572.772571 356.195193,572.772571 C362.180624,572.772571 367.032775,577.623246 367.032775,583.606857 C367.032775,589.590468 362.180624,594.441143 356.195193,594.441143 C350.209762,594.441143 345.357611,589.590468 345.357611,583.606857 L345.357611,583.606857 Z" id="路径" fill="#00486A"></path>
                        <path d="M217.474144,583.606857 C217.474144,577.623246 212.621994,572.772571 206.636562,572.772571 C200.651131,572.772571 195.79898,577.623246 195.79898,583.606857 C195.79898,589.590468 200.651131,594.441143 206.636562,594.441143 C212.621994,594.441143 217.474144,589.590468 217.474144,583.606857 Z" id="路径" fill="#00486A"></path>
                        <path d="M290.447196,577.467429 C290.447196,572.082179 286.08026,567.716571 280.693372,567.716571 C275.306484,567.716571 270.939548,572.082179 270.939548,577.467429 C270.939548,582.852678 275.306484,587.218286 280.693372,587.218286 C286.08026,587.218286 290.447196,582.852678 290.447196,577.467429 Z" id="路径" fill="#00486A"></path>
                        <rect id="矩形" fill="#00486A" x="270.939548" y="470.930286" width="20.9526584" height="54.8937143"></rect>
                        <rect id="矩形" fill="#013E56" x="265.159505" y="508.489143" width="32.5127458" height="41.8925714"></rect>
                        <path d="M290.336687,381.366857 L224.855604,381.366857 C208.395238,381.367326 192.654496,374.613446 181.305723,362.680911 C169.956949,350.748376 163.992715,334.680811 164.804485,318.22681 L169.484257,224.053036 C171.064999,192.012555 197.482501,166.847097 229.535376,166.84801 L285.656915,166.84801 C317.710494,166.82983 344.127794,192.010075 345.67231,224.053036 L350.352082,318.477082 C351.103398,334.885361 345.115967,350.887155 333.780606,362.765411 C322.445246,374.643668 306.748546,381.364547 290.336687,381.366857 Z" id="路径" fill="#013E56"></path>
                        <path d="M282.499636,329.362655 C282.499636,319.137999 276.338578,309.920128 266.889353,306.007322 C257.440129,302.094515 246.563601,304.257333 239.331478,311.487257 C232.099354,318.717181 229.935878,329.5904 233.849875,339.036751 C237.763872,348.483101 246.984547,354.642286 257.212314,354.642286 C271.178116,354.642286 282.499636,343.32421 282.499636,329.362655 L282.499636,329.362655 Z" id="路径" fill="#B1BFE1"></path>
                        <path d="M281.425741,381.366816 L220.608229,381.366816 C205.307081,381.356035 190.67879,375.080622 180.133026,364.003296 C169.587262,352.925969 164.045414,338.014563 164.799217,322.744736 L169.163768,235.097578 C170.632279,205.368815 195.182984,182.017924 224.972779,182.016 L277.168515,182.016 C306.958311,182.017924 331.509016,205.368815 332.977527,235.097578 L337.342078,322.744736 C338.096807,338.033171 332.540537,352.961447 321.971276,364.042145 C311.402015,375.122843 296.745528,381.385403 281.425741,381.366816 L281.425741,381.366816 Z" id="路径" fill="#00486A"></path>
                        <path d="M273.829543,333.370927 C273.844003,323.873365 268.132199,315.302954 259.359074,311.658373 C250.585949,308.013792 240.480461,310.013294 233.757506,316.723976 C227.034551,323.434658 225.01905,333.534017 228.651371,342.310016 C232.283692,351.086015 240.847999,356.809132 250.348461,356.809143 C263.30276,356.809158 273.809826,346.321274 273.829543,333.370927 Z" id="路径" fill="#013E56"></path>
                        <path d="M368.013235,438.427429 L192.651038,438.427429 C187.545702,438.427429 182.649467,436.41084 179.039449,432.82129 C175.429431,429.23174 173.401345,424.363265 173.401345,419.286874 L173.401345,419.286874 C173.391805,414.207581 175.416829,409.333593 179.028916,405.741985 C182.641004,402.150376 187.542783,400.136834 192.651038,400.146319 L368.013235,400.146319 C378.644547,400.146319 387.262928,408.715837 387.262928,419.286874 L387.262928,419.286874 C387.243201,429.849775 378.636365,438.407813 368.013235,438.427429 Z" id="路径" fill="#00486A"></path>
                        <rect id="矩形" fill="#013E56" x="237.704297" y="329.362286" width="25.2876912" height="135.789714"></rect>
                        <rect id="矩形" fill="#013E56" x="237.704297" y="451.428571" width="54.1879097" height="19.5017143"></rect>
                        <rect id="矩形" fill="#7BCAFF" transform="translate(496.361253, 435.177143) rotate(180.000000) translate(-496.361253, -435.177143) " x="415.440641" y="277.357714" width="161.841224" height="315.638857"></rect>
                        <rect id="矩形" fill="#65B2F1" transform="translate(658.202476, 435.177143) rotate(180.000000) translate(-658.202476, -435.177143) " x="577.281865" y="277.357714" width="161.841224" height="315.638857"></rect>
                        <rect id="矩形" fill="#55A8E0" transform="translate(657.841224, 277.357714) rotate(180.000000) translate(-657.841224, -277.357714) " x="551.994173" y="270.857143" width="211.694101" height="13.0011429"></rect>
                        <rect id="矩形" fill="#FAFAFF" transform="translate(496.000000, 346.336000) rotate(180.000000) translate(-496.000000, -346.336000) " x="429.89075" y="305.526857" width="132.2185" height="81.6182857" rx="2.49"></rect>
                        <path d="M486.246241,345.649378 C486.231846,341.699143 488.602962,338.130528 492.250878,336.612183 C495.898794,335.093838 500.102645,335.925803 502.896752,338.71906 C505.690858,341.512317 506.523077,345.71489 505.00427,349.361696 C503.485463,353.008503 499.915762,355.378897 495.964325,355.364506 C490.605283,355.344989 486.265765,351.00679 486.246241,345.649378 Z" id="路径" fill="#7BCAFF"></path>
                        <rect id="矩形" fill="#FAFAFF" transform="translate(496.000000, 437.344000) rotate(180.000000) translate(-496.000000, -437.344000) " x="429.89075" y="396.534857" width="132.2185" height="81.6182857" rx="2.49"></rect>
                        <path d="M486.246241,437.379664 C486.231846,433.429429 488.602962,429.860814 492.250878,428.342469 C495.898794,426.824124 500.102645,427.656089 502.896752,430.449346 C505.690858,433.242603 506.523077,437.445176 505.00427,441.091982 C503.485463,444.738788 499.915762,447.109183 495.964325,447.094792 C490.605283,447.075275 486.265765,442.737076 486.246241,437.379664 L486.246241,437.379664 Z" id="路径" fill="#7BCAFF"></path>
                        <rect id="矩形" fill="#FAFAFF" transform="translate(496.000000, 529.074286) rotate(180.000000) translate(-496.000000, -529.074286) " x="429.89075" y="488.265143" width="132.2185" height="81.6182857" rx="2.49"></rect>
                        <path d="M486.246437,529.145535 C486.217597,525.192156 488.579491,521.612649 492.226199,520.083062 C495.872907,518.553475 500.082571,519.376587 502.884082,522.166989 C505.685593,524.957391 506.524398,529.162727 505.007739,532.813917 C503.49108,536.465106 499.919178,538.839402 495.964518,538.825078 C490.619278,538.805718 486.285419,534.489046 486.246437,529.145535 Z" id="路径" fill="#7BCAFF"></path>
                        <polygon id="路径" fill="#7CC6F7" points="415.440641 283.858286 552.716679 283.858286 552.716679 270.857143 415.440641 273.267467"></polygon>
                        <path d="M856.066901,594.404232 L734.445981,613.13202 C730.179809,613.774247 726.193954,610.854827 725.516398,606.59159 L699.477734,437.290959 C699.159635,435.238679 699.669716,433.144035 700.895671,431.468216 C702.121625,429.792396 703.962934,428.672804 706.014189,428.355945 L827.670827,409.628158 C829.717743,409.310369 831.806843,409.821765 833.475957,411.049209 C835.145072,412.276654 836.256619,414.118971 836.564692,416.168587 L862.603356,585.647919 C863.158972,589.857595 860.258745,593.742775 856.066901,594.404232 L856.066901,594.404232 Z" id="路径" fill="#1DBFB7"></path>
                        <path d="M847.393746,585.687374 L739.383978,602.307538 C737.563121,602.584188 735.706963,602.125501 734.224745,601.032608 C732.742526,599.939715 731.755962,598.302361 731.482568,596.481545 L708.135869,444.969987 C707.558362,441.191015 710.149196,437.657662 713.927853,437.070941 L821.973374,420.450777 C825.753477,419.873443 829.287887,422.463502 829.874784,426.241028 L853.221483,577.752586 C853.700163,581.526339 851.13874,585.013859 847.393746,585.687374 Z" id="路径" fill="#FFFFFF"></path>
                        <path d="M801.115736,427.817057 L736.520089,437.685139 C735.498817,437.833547 734.546728,437.140437 734.38234,436.128882 L731.923929,420.106512 C731.841669,419.623156 731.957188,419.1272 732.244838,418.728752 C732.532489,418.330304 732.968468,418.062337 733.455983,417.984344 L798.051629,408.116261 C798.543868,408.035153 799.048254,408.154575 799.450629,408.447499 C799.853004,408.740424 800.119347,409.182084 800.189378,409.672518 L802.683418,425.694888 C802.832915,426.708717 802.134717,427.653867 801.115736,427.817057 L801.115736,427.817057 Z" id="路径" fill="#236096"></path>
                        <path d="M785.796942,420.431495 L749.094315,426.096226 C746.51619,426.479852 744.111122,424.71392 743.708409,422.141603 C741.896547,410.190738 750.115886,399.031664 762.077557,397.202534 L764.681339,396.775007 C776.635796,395.006212 787.78173,403.197007 789.649112,415.123036 C790.015074,417.642274 788.307753,419.995037 785.796942,420.431495 L785.796942,420.431495 Z M750.128694,419.255796 L782.872145,414.232355 C780.751259,406.782646 773.41852,402.067622 765.751387,403.223538 L763.147604,403.651065 C755.483071,404.818204 749.895893,411.515111 750.128694,419.255796 L750.128694,419.255796 Z" id="形状" fill="#236096"></path>
                        <path d="M738.120075,479.450335 C731.429895,480.489718 725.160089,475.920866 724.102899,469.235919 C723.04571,462.550972 727.599933,456.271637 734.284607,455.19744 C740.969282,454.123244 747.262805,458.659396 748.354806,465.338749 C748.882852,468.568604 748.098993,471.875529 746.177302,474.525144 C744.255612,477.174759 741.355166,478.947733 738.120075,479.450335 L738.120075,479.450335 Z M735.12024,460.046904 C731.123141,460.673921 728.387197,464.415747 729.003036,468.413123 C729.618875,472.410499 733.354277,475.15609 737.354892,474.551894 C741.355506,473.947699 744.112777,470.221548 743.519778,466.220723 C742.818348,462.266503 739.092988,459.590881 735.12024,460.18802 L735.12024,460.046904 Z" id="形状" fill="#A2D2ED"></path>
                        <path d="M813.764035,452.612806 L765.119163,460.066142 C763.412115,460.300134 761.82976,459.133961 761.555436,457.439729 L761.555436,457.439729 C761.300275,455.734553 762.480641,454.145963 764.192594,453.890521 L812.837466,446.401693 C814.556419,446.169082 816.144106,447.354996 816.401193,449.063599 L816.401193,449.063599 C816.636141,450.763691 815.465198,452.3396 813.764035,452.612806 L813.764035,452.612806 Z" id="路径" fill="#A2D2ED"></path>
                        <path d="M815.213328,464.873101 L766.568832,472.340256 C764.856694,472.594848 763.261618,471.417112 763.005133,469.708973 L763.005133,469.708973 C762.872634,468.887106 763.077687,468.046641 763.573955,467.377498 C764.070223,466.708354 764.815822,466.267006 765.642271,466.153185 L814.286766,458.68603 C815.998904,458.431437 817.59398,459.609173 817.850465,461.317313 L817.850465,461.317313 C818.066018,463.015558 816.904017,464.582344 815.213328,464.873101 L815.213328,464.873101 Z" id="路径" fill="#A2D2ED"></path>
                        <path d="M743.142294,515.570107 C736.458299,516.588635 730.207823,512.015283 729.15856,505.338478 C728.109296,498.661674 732.655913,492.392819 739.330375,491.313625 C746.004836,490.234432 752.296622,494.750826 753.40653,501.417824 C753.946005,504.65835 753.163799,507.979829 751.234837,510.639473 C749.305875,513.299117 746.391081,515.075046 743.142294,515.570107 L743.142294,515.570107 Z M740.133811,496.146099 C736.12519,496.774925 733.381358,500.527541 733.998973,504.536445 C734.616587,508.545349 738.362757,511.298858 742.374905,510.69292 C746.387052,510.086983 749.152272,506.350086 748.557563,502.337723 C747.854504,498.375634 744.111151,495.702809 740.133811,496.323003 L740.133811,496.146099 Z" id="形状" fill="#A2D2ED"></path>
                        <path d="M818.8254,487.981354 L770.172589,495.453376 C768.460158,495.708135 766.86481,494.529631 766.608281,492.820378 L766.608281,492.820378 C766.373293,491.116023 767.544427,489.536164 769.245869,489.262272 L817.898679,481.79025 C819.600994,481.575035 821.171534,482.735212 821.462988,484.423248 L821.462988,484.423248 C821.678578,486.1226 820.516378,487.690408 818.8254,487.981354 L818.8254,487.981354 Z" id="路径" fill="#A2D2ED"></path>
                        <path d="M820.958141,500.283284 L772.343466,507.741227 C770.641239,507.956037 769.070779,506.798045 768.77934,505.11319 L768.77934,505.11319 C768.657359,504.288444 768.871127,503.44932 769.373112,502.782396 C769.875096,502.115473 770.623687,501.676034 771.452435,501.561789 L820.06711,494.068331 C821.781077,493.855212 823.356652,495.032675 823.631235,496.731882 L823.631235,496.731882 C823.845118,498.439731 822.663437,500.009681 820.958141,500.283284 L820.958141,500.283284 Z" id="路径" fill="#A2D2ED"></path>
                        <path d="M748.890868,550.967364 C742.206349,551.966325 735.97002,547.380904 734.93474,540.705764 C733.89946,534.030623 738.454173,527.773541 745.12762,526.703192 C751.801068,525.632844 758.086107,530.151348 759.192756,536.815042 C759.721847,540.059505 758.930795,543.3807 756.99578,546.038947 C755.060764,548.697194 752.142478,550.471739 748.890868,550.967364 Z M745.917127,531.543302 C742.972382,531.992976 740.588821,534.171549 739.878299,537.062788 C739.167777,539.954026 740.270283,542.988291 742.671532,544.750195 C745.072782,546.512098 748.299676,546.654506 750.846971,545.110989 C753.394266,543.567472 754.760088,540.642138 754.307325,537.699562 C753.689638,533.685128 749.93452,530.929831 745.917127,531.543302 L745.917127,531.543302 Z" id="形状" fill="#A2D2ED"></path>
                        <path d="M824.565871,524.11944 L775.947714,531.577383 C774.233624,531.790502 772.657936,530.61304 772.383333,528.913832 L772.383333,528.913832 C772.169435,527.205984 773.351201,525.636033 775.056619,525.36243 L823.674776,517.904487 C825.377125,517.689677 826.947698,518.847669 827.239157,520.532524 L827.239157,520.532524 C827.473938,522.253191 826.286946,523.845852 824.565871,524.11944 L824.565871,524.11944 Z" id="路径" fill="#A2D2ED"></path>
                        <path d="M826.768698,536.383442 L778.115887,543.855465 C776.413573,544.07068 774.843032,542.910502 774.551579,541.222466 L774.551579,541.222466 C774.335989,539.523114 775.498189,537.955307 777.189167,537.66436 L825.841978,530.192338 C827.554408,529.93758 829.149757,531.116083 829.406286,532.825336 L829.406286,532.825336 C829.641273,534.529691 828.470139,536.109551 826.768698,536.383442 Z" id="路径" fill="#A2D2ED"></path>
                        <path d="M754.705461,587.076392 C748.02001,588.094921 741.768172,583.521568 740.71868,576.844764 C739.669188,570.16796 744.216795,563.899105 750.892711,562.819911 C757.568626,561.740718 763.861784,566.257112 764.971933,572.92411 C765.501616,576.16328 764.715326,579.479742 762.787676,582.136998 C760.860026,584.794254 757.950585,586.572341 754.705461,587.076392 L754.705461,587.076392 Z M751.731724,567.652385 C748.786984,568.102057 746.403426,570.280625 745.692905,573.171855 C744.982384,576.063085 746.084888,579.097342 748.486134,580.85924 C750.88738,582.621139 754.11427,582.763546 756.661561,581.220034 C759.208852,579.676521 760.574672,576.751195 760.12191,573.808628 C759.468762,569.815808 755.73911,567.079201 751.731724,567.652385 L751.731724,567.652385 Z" id="形状" fill="#A2D2ED"></path>
                        <path d="M830.372296,559.49253 L781.727801,566.959685 C780.015663,567.214277 778.420587,566.036541 778.164102,564.328401 L778.164102,564.328401 C777.948548,562.630156 779.11055,561.06337 780.801239,560.772613 L829.445734,553.305458 C831.157872,553.050866 832.752948,554.228602 833.009433,555.936741 L833.009433,555.936741 C833.141932,556.758608 832.93688,557.599073 832.440612,558.268217 C831.944344,558.93736 831.198744,559.378708 830.372296,559.49253 Z" id="路径" fill="#A2D2ED"></path>
                        <path d="M831.821973,571.755193 L783.177101,579.244021 C781.458148,579.476632 779.870461,578.290718 779.613374,576.582115 L779.613374,576.582115 C779.378425,574.882023 780.549368,573.306114 782.250532,573.032908 L830.895404,565.579572 C832.602451,565.345581 834.184807,566.511753 834.459131,568.205986 L834.459131,568.205986 C834.714292,569.911161 833.533926,571.499751 831.821973,571.755193 L831.821973,571.755193 Z" id="路径" fill="#A2D2ED"></path>
                        <g id="编组" transform="translate(653.867444, 499.821714)">
                            <rect id="矩形" fill="#DFEAE9" transform="translate(77.125778, 57.708823) rotate(180.000000) translate(-77.125778, -57.708823) " x="0.679995257" y="0.610105714" width="152.891565" height="114.197434"></rect>
                            <rect id="矩形" fill="#FFFFFF" transform="translate(77.125778, 113.354053) rotate(180.000000) translate(-77.125778, -113.354053) " x="0.679995257" y="111.864677" width="152.891565" height="2.97875143"></rect>
                            <rect id="矩形" fill="#FFFFFF" transform="translate(77.125778, 108.042544) rotate(180.000000) translate(-77.125778, -108.042544) " x="0.679995257" y="106.553169" width="152.891565" height="2.97875143"></rect>
                            <rect id="矩形" fill="#FFFFFF" transform="translate(77.125778, 102.731036) rotate(180.000000) translate(-77.125778, -102.731036) " x="0.679995257" y="101.24166" width="152.891565" height="2.97875143"></rect>
                            <rect id="矩形" fill="#FFFFFF" transform="translate(77.125778, 97.473360) rotate(180.000000) translate(-77.125778, -97.473360) " x="0.679995257" y="96.0019286" width="152.891565" height="2.94286286"></rect>
                            <rect id="矩形" fill="#FFFFFF" transform="translate(77.125778, 92.143907) rotate(180.000000) translate(-77.125778, -92.143907) " x="0.679995257" y="90.6545314" width="152.891565" height="2.97875143"></rect>
                            <rect id="矩形" fill="#FFFFFF" transform="translate(77.125778, 86.868287) rotate(180.000000) translate(-77.125778, -86.868287) " x="0.679995257" y="85.3789114" width="152.891565" height="2.97875143"></rect>
                            <rect id="矩形" fill="#FFFFFF" transform="translate(77.125778, 81.556779) rotate(180.000000) translate(-77.125778, -81.556779) " x="0.679995257" y="80.0674029" width="152.891565" height="2.97875143"></rect>
                            <rect id="矩形" fill="#FFFFFF" transform="translate(77.125778, 76.245270) rotate(180.000000) translate(-77.125778, -76.245270) " x="0.679995257" y="74.7558943" width="152.891565" height="2.97875143"></rect>
                            <rect id="矩形" fill="#FFFFFF" transform="translate(77.125778, 70.969650) rotate(180.000000) translate(-77.125778, -70.969650) " x="0.679995257" y="69.4802743" width="152.891565" height="2.97875143"></rect>
                            <rect id="矩形" fill="#FFFFFF" transform="translate(77.125778, 65.658141) rotate(180.000000) translate(-77.125778, -65.658141) " x="0.679995257" y="64.1687657" width="152.891565" height="2.97875143"></rect>
                            <rect id="矩形" fill="#FFFFFF" transform="translate(77.125778, 60.400466) rotate(180.000000) translate(-77.125778, -60.400466) " x="0.679995257" y="58.9290343" width="152.891565" height="2.94286286"></rect>
                            <rect id="矩形" fill="#FFFFFF" transform="translate(77.125778, 55.071013) rotate(180.000000) translate(-77.125778, -55.071013) " x="0.679995257" y="53.5816371" width="152.891565" height="2.97875143"></rect>
                            <rect id="矩形" fill="#FFFFFF" transform="translate(77.125778, 49.759504) rotate(180.000000) translate(-77.125778, -49.759504) " x="0.679995257" y="48.2701286" width="152.891565" height="2.97875143"></rect>
                            <rect id="矩形" fill="#FFFFFF" transform="translate(77.125778, 44.483884) rotate(180.000000) translate(-77.125778, -44.483884) " x="0.679995257" y="42.9945086" width="152.891565" height="2.97875143"></rect>
                            <rect id="矩形" fill="#FFFFFF" transform="translate(77.125778, 39.172376) rotate(180.000000) translate(-77.125778, -39.172376) " x="0.679995257" y="37.683" width="152.891565" height="2.97875143"></rect>
                            <rect id="矩形" fill="#FFFFFF" transform="translate(77.125778, 33.896756) rotate(180.000000) translate(-77.125778, -33.896756) " x="0.679995257" y="32.40738" width="152.891565" height="2.97875143"></rect>
                            <rect id="矩形" fill="#FFFFFF" transform="translate(77.125778, 28.585247) rotate(180.000000) translate(-77.125778, -28.585247) " x="0.679995257" y="27.0958714" width="152.891565" height="2.97875143"></rect>
                            <rect id="矩形" fill="#FFFFFF" transform="translate(77.125778, 23.273739) rotate(180.000000) translate(-77.125778, -23.273739) " x="0.679995257" y="21.7843629" width="152.891565" height="2.97875143"></rect>
                            <rect id="矩形" fill="#FFFFFF" transform="translate(77.125778, 17.998119) rotate(180.000000) translate(-77.125778, -17.998119) " x="0.679995257" y="16.5087429" width="152.891565" height="2.97875143"></rect>
                            <rect id="矩形" fill="#FFFFFF" transform="translate(77.125778, 12.686610) rotate(180.000000) translate(-77.125778, -12.686610) " x="0.679995257" y="11.1972343" width="152.891565" height="2.97875143"></rect>
                            <rect id="矩形" fill="#FFFFFF" transform="translate(77.125778, 7.410990) rotate(180.000000) translate(-77.125778, -7.410990) " x="0.679995257" y="5.92161429" width="152.891565" height="2.97875143"></rect>
                            <rect id="矩形" fill="#FFFFFF" transform="translate(77.125778, 2.099481) rotate(180.000000) translate(-77.125778, -2.099481) " x="0.679995257" y="0.610105714" width="152.891565" height="2.97875143"></rect>
                        </g>
                        <path d="M800.942089,547.492571 C800.942089,547.492571 812.442465,547.925943 819.321194,572.772571 C819.321194,572.772571 777.224802,548.467657 758.630736,547.492571 L800.942089,547.492571 Z" id="路径" fill="#FFFFFF"></path>
                        <path d="M663.140086,550.469896 C653.429536,549.545062 644.532794,555.984988 642.307356,565.549714 C642.307356,565.549714 679.756244,553.349097 695.050255,550.469896 L663.140086,550.469896 Z" id="路径" fill="#FFFFFF"></path>
                    </g>
                </g>
            </g>
        </g>
    </g>
</svg>